<?xml version="1.0" encoding="utf-8"?><svg xmlns="http://www.w3.org/2000/svg" xmlns:xlink="http://www.w3.org/1999/xlink"><symbol fill="none" viewBox="0 0 123 77" id="hat" xmlns="http://www.w3.org/2000/svg"><mask id="aa" maskUnits="userSpaceOnUse" x="0" y="0" width="123" height="77"><path d="M61.65 46.834c-13.895 0-25.7 5.502-33.41 14.125V77h66.823V60.96c-7.71-8.624-19.517-14.127-33.414-14.127zM123 38.6L61.487 0 0 38.602l10.25 6.387v9.825c-2.57.724-2.578 2.558-2.578 4.739 0 1.288.313 2.796.91 3.699L5.066 73.5h12.542l-3.485-10.255c.586-.903 1.066-2.233 1.066-3.521 0-2.177-2.37-4.19-2.37-4.914v-8.18l12.851 7.861v-.696c7.71-9.132 21.258-14.928 35.977-14.928 14.724 0 28.276 5.797 35.986 14.928v.697L123 38.602z" fill="#023E8A"/></mask><g mask="url(#aa)"><circle cx="58.5" cy="42.5" r="65.5" fill="url(#apaint0_linear)" fill-opacity=".6"/></g><defs><linearGradient id="apaint0_linear" x1="-1.5" y1="-8.5" x2="98.5" y2="100" gradientUnits="userSpaceOnUse"><stop stop-color="#2D669B"/><stop offset=".653" stop-color="#0029FF" stop-opacity=".595"/><stop offset="1" stop-color="#0500FF" stop-opacity="0"/></linearGradient></defs></symbol><symbol fill="none" viewBox="0 0 106 106" id="ok" xmlns="http://www.w3.org/2000/svg"><path d="M62.943 3.662a15.328 15.328 0 00-19.886 0l-6.494 5.54a5.11 5.11 0 01-2.913 1.205l-8.507.674a15.329 15.329 0 00-14.056 14.062l-.68 8.512a5.11 5.11 0 01-1.206 2.908l-5.539 6.494a15.328 15.328 0 000 19.886l5.54 6.494a5.11 5.11 0 011.205 2.913l.68 8.507a15.328 15.328 0 0014.056 14.056l8.512.68a5.131 5.131 0 012.908 1.206l6.494 5.539a15.328 15.328 0 0019.886 0l6.494-5.54a5.146 5.146 0 012.913-1.205l8.507-.68a15.328 15.328 0 0014.056-14.056l.68-8.512a5.11 5.11 0 011.206-2.908l5.539-6.494a15.328 15.328 0 000-19.886l-5.54-6.494a5.11 5.11 0 01-1.205-2.913l-.68-8.507A15.328 15.328 0 0080.857 11.08l-8.512-.674a5.11 5.11 0 01-2.908-1.206l-6.494-5.539zM49.68 11.444a5.11 5.11 0 016.632 0l6.5 5.534a15.328 15.328 0 008.721 3.612l8.508.68a5.11 5.11 0 014.69 4.685l.68 8.513a15.328 15.328 0 003.612 8.722l5.534 6.494a5.11 5.11 0 010 6.632l-5.534 6.494a15.328 15.328 0 00-3.612 8.722l-.68 8.508a5.11 5.11 0 01-4.69 4.69l-8.508.68a15.328 15.328 0 00-8.722 3.612l-6.494 5.534a5.11 5.11 0 01-6.632 0l-6.494-5.534a15.328 15.328 0 00-8.722-3.612l-8.513-.68a5.11 5.11 0 01-4.685-4.69l-.68-8.508a15.328 15.328 0 00-3.612-8.722l-5.534-6.494a5.11 5.11 0 010-6.632l5.534-6.494a15.328 15.328 0 003.612-8.722l.68-8.513a5.11 5.11 0 014.685-4.685l8.513-.68a15.328 15.328 0 008.722-3.612l6.494-5.534h-.005zm22.257 34.95a5.11 5.11 0 00-7.225-7.225l-16.82 16.825-6.607-6.606a5.11 5.11 0 00-8.37 5.566 5.11 5.11 0 001.145 1.658l10.219 10.22a5.11 5.11 0 007.225 0L71.94 46.393h-.005z" fill="#023E8A"/></symbol></svg>