<svg width="106" height="106" viewBox="0 0 106 106" fill="none" xmlns="http://www.w3.org/2000/svg">
<path d="M62.9431 3.66242C60.1695 1.29844 56.6444 0 53 0C49.3556 0 45.8305 1.29844 43.0569 3.66242L36.5627 9.20114C35.7432 9.89999 34.7239 10.322 33.6502 10.407L25.1429 11.0814C21.511 11.3723 18.1016 12.9473 15.5257 15.5241C12.9499 18.1009 11.3761 21.5109 11.0866 25.1429L10.407 33.6553C10.321 34.7272 9.899 35.7446 9.20114 36.5627L3.66242 43.0569C1.29844 45.8305 0 49.3556 0 53C0 56.6444 1.29844 60.1695 3.66242 62.9431L9.20114 69.4373C9.89999 70.2568 10.322 71.2761 10.407 72.3498L11.0866 80.8571C11.3773 84.4882 12.9516 87.897 15.5273 90.4727C18.103 93.0484 21.5118 94.6227 25.1429 94.9134L33.6553 95.593C34.7283 95.6799 35.7451 96.104 36.5627 96.7989L43.0569 102.338C45.8305 104.702 49.3556 106 53 106C56.6444 106 60.1695 104.702 62.9431 102.338L69.4373 96.7989C70.2549 96.104 71.2768 95.6799 72.3498 95.593L80.8571 94.9134C84.4882 94.6227 87.897 93.0484 90.4727 90.4727C93.0484 87.897 94.6227 84.4882 94.9134 80.8571L95.593 72.3447C95.679 71.2728 96.101 70.2554 96.7989 69.4373L102.338 62.9431C104.702 60.1695 106 56.6444 106 53C106 49.3556 104.702 45.8305 102.338 43.0569L96.7989 36.5627C96.1 35.7432 95.678 34.7239 95.593 33.6502L94.9134 25.1429C94.6239 21.5109 93.0501 18.1009 90.4743 15.5241C87.8984 12.9473 84.489 11.3723 80.8571 11.0814L72.3447 10.407C71.2728 10.321 70.2554 9.899 69.4373 9.20114L62.9431 3.66242ZM49.6788 11.4442C50.6036 10.6553 51.7793 10.222 52.9949 10.222C54.2104 10.222 55.3862 10.6553 56.311 11.4442L62.8103 16.9778C65.2652 19.0696 68.3173 20.3337 71.5322 20.5903L80.0396 21.2698C81.2509 21.3656 82.3884 21.8898 83.248 22.7485C84.1076 23.6072 84.6331 24.7441 84.7302 25.9553L85.4097 34.4678C85.6663 37.6827 86.9304 40.7348 89.0222 43.1897L94.5558 49.6839C95.3447 50.6087 95.778 51.7844 95.778 53C95.778 54.2156 95.3447 55.3913 94.5558 56.3161L89.0222 62.8103C86.9304 65.2652 85.6663 68.3173 85.4097 71.5322L84.7302 80.0396C84.6342 81.2517 84.1093 82.3898 83.2495 83.2495C82.3898 84.1093 81.2517 84.6342 80.0396 84.7302L71.5322 85.4097C68.3173 85.6663 65.2652 86.9304 62.8103 89.0222L56.3161 94.5558C55.3913 95.3447 54.2156 95.778 53 95.778C51.7844 95.778 50.6087 95.3447 49.6839 94.5558L43.1897 89.0222C40.7348 86.9304 37.6827 85.6663 34.4678 85.4097L25.9553 84.7302C24.7441 84.6331 23.6072 84.1076 22.7485 83.248C21.8898 82.3884 21.3656 81.2509 21.2698 80.0396L20.5903 71.5322C20.3337 68.3173 19.0696 65.2652 16.9778 62.8103L11.4442 56.3161C10.6553 55.3913 10.222 54.2156 10.222 53C10.222 51.7844 10.6553 50.6087 11.4442 49.6839L16.9778 43.1897C19.0696 40.7348 20.3337 37.6827 20.5903 34.4678L21.2698 25.9553C21.3668 24.7449 21.8915 23.6087 22.7501 22.7501C23.6087 21.8915 24.7449 21.3668 25.9553 21.2698L34.4678 20.5903C37.6827 20.3337 40.7348 19.0696 43.1897 16.9778L49.6839 11.4442H49.6788ZM71.9359 46.3934C72.8666 45.4297 73.3817 44.139 73.37 42.7993C73.3584 41.4596 72.821 40.1781 71.8737 39.2308C70.9263 38.2834 69.6448 37.746 68.3051 37.7344C66.9654 37.7228 65.6747 38.2378 64.711 39.1685L47.8905 55.9942L41.2839 49.3876C40.8125 48.8996 40.2487 48.5103 39.6253 48.2425C39.0019 47.9747 38.3315 47.8338 37.653 47.8279C36.9746 47.822 36.3018 47.9513 35.6738 48.2082C35.0459 48.4651 34.4754 48.8445 33.9957 49.3242C33.5159 49.804 33.1365 50.3745 32.8796 51.0024C32.6227 51.6304 32.4934 52.3032 32.4993 52.9816C32.5052 53.66 32.6461 54.3305 32.9139 54.9539C33.1817 55.5773 33.571 56.1411 34.059 56.6124L44.278 66.8315C45.2362 67.7894 46.5356 68.3275 47.8905 68.3275C49.2453 68.3275 50.5447 67.7894 51.5029 66.8315L71.941 46.3934H71.9359Z" fill="#023E8A"/>
</svg>
